<?xml version="1.0" encoding="utf-8"?>
<!-- Generator: Adobe Illustrator 26.0.1, SVG Export Plug-In . SVG Version: 6.00 Build 0)  -->
<svg version="1.1" id="Capa_1" xmlns="http://www.w3.org/2000/svg" xmlns:xlink="http://www.w3.org/1999/xlink" x="0px" y="0px"
	 viewBox="0 0 40 40" style="enable-background:new 0 0 40 40;" xml:space="preserve">
<style type="text/css">
	.st0{fill:#FFFFFF;}
</style>
<g>
	<path class="st0" d="M10,5c0,2.8-2.2,5-5,5S0,7.8,0,5s2.2-5,5-5S10,2.2,10,5z"/>
	<path class="st0" d="M10,20c0,2.8-2.2,5-5,5s-5-2.2-5-5s2.2-5,5-5S10,17.2,10,20z"/>
	<path class="st0" d="M5,40c2.8,0,5-2.2,5-5s-2.2-5-5-5s-5,2.2-5,5S2.2,40,5,40z"/>
	<path class="st0" d="M25,5c0,2.8-2.2,5-5,5s-5-2.2-5-5s2.2-5,5-5S25,2.2,25,5z"/>
	<path class="st0" d="M20,25c2.8,0,5-2.2,5-5s-2.2-5-5-5s-5,2.2-5,5S17.2,25,20,25z"/>
	<path class="st0" d="M25,35c0,2.8-2.2,5-5,5s-5-2.2-5-5s2.2-5,5-5S25,32.2,25,35z"/>
	<path class="st0" d="M35,10c2.8,0,5-2.2,5-5s-2.2-5-5-5s-5,2.2-5,5S32.2,10,35,10z"/>
	<path class="st0" d="M40,20c0,2.8-2.2,5-5,5s-5-2.2-5-5s2.2-5,5-5S40,17.2,40,20z"/>
	<path class="st0" d="M35,40c2.8,0,5-2.2,5-5s-2.2-5-5-5s-5,2.2-5,5S32.2,40,35,40z"/>
</g>
</svg>
